M48
; DRILL file {KiCad 9.0.5} date 2025-11-19T13:11:48+0200
; FORMAT={-:-/ absolute / inch / decimal}
; #@! TF.CreationDate,2025-11-19T13:11:48+02:00
; #@! TF.GenerationSoftware,Kicad,Pcbnew,9.0.5
; #@! TF.FileFunction,Plated,1,4,PTH
FMAT,2
INCH
; #@! TA.AperFunction,Plated,PTH,ViaDrill
T1C0.0118
; #@! TA.AperFunction,Plated,PTH,ComponentDrill
T2C0.0300
; #@! TA.AperFunction,Plated,PTH,ComponentDrill
T3C0.0315
; #@! TA.AperFunction,Plated,PTH,ComponentDrill
T4C0.0394
; #@! TA.AperFunction,Plated,PTH,ComponentDrill
T5C0.0591
; #@! TA.AperFunction,Plated,PTH,ComponentDrill
T6C0.0630
%
G90
G05
T1
X2.275Y-7.2
X2.275Y-7.25
X2.275Y-7.3
X2.35Y-6.625
X2.425Y-6.625
X2.45Y-6.95
X2.5197Y-6.4961
X2.775Y-6.925
X2.775Y-7.0
X3.0Y-6.75
X3.2Y-8.575
X3.225Y-8.35
X3.225Y-8.4346
X3.2748Y-8.4347
X3.275Y-8.025
X3.65Y-7.2
X3.65Y-7.25
X3.65Y-7.3
X3.7008Y-8.6024
X3.875Y-6.45
X3.937Y-6.2205
X3.95Y-6.45
X4.0329Y-4.6882
X4.05Y-4.3
X4.05Y-4.35
X4.05Y-4.4
X4.05Y-4.45
X4.1Y-4.3
X4.1Y-4.35
X4.1Y-4.4
X4.1Y-4.45
X4.1073Y-4.5907
X4.231Y-4.2954
X4.25Y-6.775
X4.25Y-6.85
X4.252Y-7.2638
X4.2825Y-4.5585
X4.2877Y-4.5998
X4.2943Y-4.8
X4.3193Y-4.075
X4.325Y-5.325
X4.3643Y-4.6967
X4.4Y-5.325
X4.425Y-4.3
X4.425Y-4.35
X4.425Y-4.4
X4.425Y-4.45
X4.425Y-4.5
X4.45Y-5.325
X4.475Y-4.35
X4.475Y-4.4
X4.475Y-4.45
X4.475Y-4.5
X4.475Y-4.6
X4.475Y-6.625
X4.5Y-4.225
X4.525Y-4.35
X4.525Y-4.4
X4.525Y-4.45
X4.525Y-4.5
X4.75Y-4.65
X4.8Y-4.3
X4.8Y-4.35
X4.8Y-4.4
X4.8Y-4.45
X4.825Y-4.575
X4.85Y-4.3
X4.85Y-4.35
X4.85Y-4.4
X4.85Y-4.45
X4.9Y-4.3
X4.9Y-4.35
X4.9Y-4.4
X4.9Y-4.45
X4.925Y-8.325
X4.9468Y-4.2647
X5.0Y-4.5359
X5.0112Y-4.5986
X5.0443Y-4.75
X5.05Y-8.275
X5.075Y-5.3
X5.125Y-4.275
X5.125Y-4.325
X5.125Y-4.375
X5.125Y-4.425
X5.125Y-5.3
X5.175Y-4.275
X5.175Y-4.325
X5.175Y-4.375
X5.175Y-4.425
X5.175Y-5.3
X5.175Y-8.225
X5.2Y-4.575
X5.2Y-8.375
X5.2094Y-4.1875
X5.225Y-4.275
X5.225Y-4.325
X5.225Y-4.375
X5.225Y-4.425
X5.225Y-5.2
X5.225Y-5.3
X5.3Y-8.175
X5.4435Y-8.175
X5.475Y-8.1
X5.5Y-8.025
X5.9646Y-8.1496
X6.1909Y-8.8287
X6.2402Y-4.6063
X6.2697Y-7.7657
X6.275Y-3.175
X6.2796Y-4.508
X6.325Y-8.825
X6.3287Y-7.7657
X6.386Y-7.7638
X6.387Y-3.275
X6.4Y-8.825
X6.4243Y-7.7629
X6.4862Y-7.7657
X6.4961Y-8.1299
X6.525Y-3.225
X6.525Y-3.2742
X6.525Y-3.3136
X6.525Y-3.3628
X6.525Y-3.55
X6.525Y-3.5992
X6.525Y-3.6386
X6.525Y-3.6878
X6.525Y-8.475
X6.5354Y-8.8189
X6.55Y-8.025
X6.565Y-7.7657
X6.575Y-5.0454
X6.6242Y-5.2
X6.625Y-2.8
X6.6437Y-7.7657
X6.65Y-8.4484
X6.6742Y-5.25
X6.675Y-3.225
X6.675Y-3.2742
X6.675Y-3.3136
X6.675Y-3.3628
X6.675Y-3.575
X6.675Y-3.6242
X6.675Y-3.6636
X6.675Y-3.7128
X6.675Y-4.65
X6.675Y-4.6992
X6.675Y-4.7386
X6.675Y-4.7878
X6.675Y-8.25
X6.675Y-8.3
X6.7Y-5.125
X6.7224Y-7.7657
X6.7242Y-5.3
X6.725Y-9.275
X6.7323Y-7.5787
X6.75Y-5.175
X6.752Y-2.8543
X6.7622Y-5.125
X6.7742Y-5.35
X6.8Y-5.225
X6.8Y-8.525
X6.8114Y-5.125
X6.825Y-5.4
X6.8443Y-9.2766
X6.85Y-5.275
X6.85Y-8.525
X6.85Y-9.025
X6.8508Y-5.125
X6.8742Y-5.45
X6.9Y-5.125
X6.9Y-9.1
X6.9008Y-5.325
X6.9242Y-5.5
X6.95Y-5.125
X6.95Y-5.375
X6.95Y-9.1652
X6.975Y-4.125
X6.975Y-4.4
X6.975Y-5.55
X6.9992Y-5.125
X7.0Y-5.425
X7.0242Y-5.6
X7.0386Y-5.125
X7.0508Y-5.475
X7.0742Y-5.65
X7.0878Y-5.125
X7.1Y-5.525
X7.1242Y-5.7
X7.125Y-4.075
X7.15Y-5.575
X7.1742Y-5.75
X7.1984Y-4.4304
X7.2Y-9.15
X7.2008Y-5.625
X7.2136Y-7.5201
X7.2136Y-7.5693
X7.2136Y-7.6086
X7.2136Y-7.6578
X7.2136Y-7.6972
X7.2136Y-7.7464
X7.2136Y-7.7858
X7.2136Y-7.835
X7.2136Y-7.8842
X7.2136Y-7.9334
X7.2136Y-7.9728
X7.2136Y-8.022
X7.2136Y-8.0712
X7.2136Y-8.1204
X7.2136Y-8.1598
X7.2136Y-8.209
X7.225Y-5.8
X7.2431Y-8.2386
X7.25Y-5.675
X7.2521Y-4.4277
X7.2563Y-4.194
X7.2614Y-5.15
X7.2726Y-8.2681
X7.2742Y-5.85
X7.2745Y-2.5388
X7.2745Y-2.6175
X7.3Y-3.9
X7.3Y-5.725
X7.3106Y-5.15
X7.3242Y-5.9
X7.325Y-8.7234
X7.3425Y-9.1732
X7.35Y-5.15
X7.3508Y-5.775
X7.3631Y-2.3222
X7.3631Y-2.3715
X7.3631Y-2.4108
X7.3729Y-3.6018
X7.3729Y-3.651
X7.3729Y-3.6903
X7.3729Y-3.7396
X7.375Y-5.95
X7.3809Y-7.6578
X7.3809Y-7.7071
X7.3907Y-8.3862
X7.3926Y-2.4797
X7.3992Y-5.15
X7.4Y-5.825
X7.4Y-7.4
X7.4Y-8.7234
X7.4Y-9.175
X7.4006Y-7.9128
X7.4006Y-7.963
X7.4189Y-7.6562
X7.4193Y-7.7071
X7.4242Y-6.0
X7.4301Y-8.4157
X7.432Y-2.9226
X7.4364Y-7.5033
X7.4399Y-7.9138
X7.4399Y-7.962
X7.4418Y-2.6175
X7.4438Y-3.6215
X7.4438Y-3.6805
X7.4498Y-8.3271
X7.45Y-5.875
X7.45Y-9.1
X7.4566Y-4.2074
X7.4566Y-4.2862
X7.4566Y-4.3452
X7.4606Y-8.9567
X7.4695Y-7.3823
X7.4695Y-8.4354
X7.4714Y-2.1155
X7.4714Y-3.897
X7.4881Y-3.6215
X7.4881Y-3.6726
X7.4891Y-8.2681
X7.496Y-2.4751
X7.499Y-8.3468
X7.5Y-9.0628
X7.5008Y-5.925
X7.5092Y-6.011
X7.5116Y-8.146
X7.5187Y-8.4354
X7.5206Y-2.1155
X7.5206Y-3.897
X7.5304Y-2.9718
X7.5348Y-8.271
X7.5364Y-5.125
X7.5452Y-2.2572
X7.5482Y-8.3468
X7.55Y-5.925
X7.5536Y-2.2209
X7.5545Y-7.9364
X7.558Y-8.4354
X7.5585Y-6.011
X7.5599Y-2.1155
X7.5599Y-3.897
X7.5608Y-8.146
X7.5747Y-4.2074
X7.5747Y-4.3452
X7.575Y-9.0
X7.5777Y-7.625
X7.584Y-8.271
X7.5856Y-5.125
X7.5876Y-8.3468
X7.5894Y-5.925
X7.5944Y-3.7153
X7.5954Y-2.2583
X7.5978Y-6.011
X7.6002Y-8.146
X7.6073Y-7.3297
X7.6073Y-7.5919
X7.6073Y-8.4354
X7.6091Y-2.1155
X7.6091Y-3.897
X7.6099Y-7.7701
X7.6156Y-2.2292
X7.6234Y-8.271
X7.625Y-5.125
X7.6338Y-3.0066
X7.6338Y-3.1444
X7.6368Y-8.3468
X7.6386Y-5.925
X7.6425Y-7.6073
X7.6431Y-7.3065
X7.647Y-6.011
X7.6494Y-8.146
X7.6529Y-8.0151
X7.6561Y-8.4375
X7.6619Y-3.8941
X7.6663Y-7.5496
X7.6726Y-7.2277
X7.6726Y-8.271
X7.6742Y-5.125
X7.6824Y-5.9261
X7.686Y-8.3468
X7.6879Y-2.4896
X7.6909Y-6.0121
X7.6958Y-8.1401
X7.7057Y-8.4354
X7.7076Y-3.8518
X7.7125Y-3.7153
X7.7254Y-7.835
X7.7316Y-5.9261
X7.7352Y-8.3468
X7.7364Y-5.125
X7.7401Y-6.0121
X7.745Y-8.4354
X7.7549Y-7.146
X7.7647Y-7.8557
X7.7647Y-8.2287
X7.7666Y-3.9758
X7.771Y-5.9261
X7.7746Y-8.3468
X7.7795Y-6.0121
X7.7844Y-7.6775
X7.7856Y-5.125
X7.7943Y-8.4354
X7.806Y-2.5388
X7.8202Y-5.9261
X7.8237Y-3.1729
X7.8238Y-7.0476
X7.8238Y-7.5496
X7.8238Y-8.3468
X7.825Y-5.125
X7.8287Y-6.0121
X7.8336Y-7.4315
X7.8434Y-8.2289
X7.8435Y-8.0712
X7.8454Y-3.9758
X7.8595Y-3.6669
X7.863Y-5.9261
X7.8714Y-6.0121
X7.8742Y-5.125
X7.8847Y-3.5132
X7.8847Y-3.5526
X7.8946Y-3.2035
X7.8946Y-3.3065
X7.8946Y-3.8675
X7.9025Y-7.1559
X7.9025Y-7.7169
X7.9025Y-7.8183
X7.9122Y-5.9261
X7.9124Y-7.4708
X7.9124Y-7.5102
X7.9206Y-6.0121
X7.925Y-9.0
X7.925Y-9.05
X7.9364Y-4.775
X7.9364Y-5.125
X7.9376Y-7.3565
X7.9515Y-5.9261
X7.9517Y-7.0476
X7.9536Y-2.9522
X7.9538Y-2.7945
X7.96Y-6.0121
X7.9635Y-3.5919
X7.9733Y-2.6766
X7.9733Y-3.4738
X7.9733Y-3.9758
X7.9734Y-7.8505
X7.9856Y-4.775
X7.9856Y-5.125
X7.9911Y-8.4846
X8.0007Y-5.9261
X8.0028Y-2.588
X8.0092Y-6.0121
X8.0127Y-3.3459
X8.0225Y-2.6766
X8.025Y-4.775
X8.025Y-5.125
X8.0305Y-7.0476
X8.0324Y-2.7947
X8.0324Y-3.1677
X8.0413Y-5.9272
X8.0422Y-3.8774
X8.0497Y-6.0132
X8.0521Y-2.588
X8.0614Y-3.875
X8.0619Y-2.6766
X8.0717Y-3.1884
X8.0742Y-4.775
X8.0742Y-5.125
X8.0895Y-7.1716
X8.0905Y-5.9272
X8.0914Y-2.588
X8.099Y-6.0132
X8.1Y-9.125
X8.1013Y-2.8833
X8.1062Y-3.7744
X8.1092Y-8.5338
X8.1106Y-3.875
X8.1111Y-2.6766
X8.1245Y-2.7524
X8.1299Y-5.9272
X8.1308Y-3.4738
X8.1352Y-7.1293
X8.1364Y-5.125
X8.1383Y-6.0132
X8.1406Y-2.588
X8.145Y-8.0151
X8.1477Y-2.8774
X8.15Y-3.875
X8.15Y-9.05
X8.154Y-3.7169
X8.1603Y-2.6766
X8.1737Y-2.7524
X8.1749Y-7.2773
X8.1791Y-5.9272
X8.1815Y-8.7942
X8.1844Y-7.8576
X8.1849Y-3.0657
X8.1849Y-3.7744
X8.1856Y-5.125
X8.1864Y-4.775
X8.1873Y-3.2533
X8.1875Y-6.0132
X8.188Y-7.1264
X8.188Y-8.9078
X8.1899Y-2.588
X8.1899Y-3.4315
X8.1899Y-3.6937
X8.1969Y-2.8774
X8.1992Y-3.875
X8.2017Y-8.7651
X8.2095Y-2.6766
X8.2131Y-2.7524
X8.2194Y-3.402
X8.225Y-5.125
X8.2356Y-4.775
X8.2363Y-2.8774
X8.2372Y-7.1264
X8.2372Y-8.9078
X8.2391Y-2.588
X8.2435Y-8.8025
X8.2439Y-3.2533
X8.244Y-3.0657
X8.2489Y-2.6766
X8.2519Y-8.7662
X8.2623Y-2.7524
X8.2667Y-8.0515
X8.2742Y-5.125
X8.275Y-4.775
X8.2765Y-7.1264
X8.2765Y-8.9078
X8.2784Y-2.588
X8.2855Y-2.8774
X8.2981Y-2.6766
X8.3025Y-8.5466
X8.308Y-2.7553
X8.309Y-7.3508
X8.309Y-7.4019
X8.3242Y-4.775
X8.3258Y-7.1264
X8.3258Y-8.9078
X8.3277Y-2.588
X8.3277Y-3.6411
X8.3364Y-5.125
X8.3473Y-2.6963
X8.35Y-3.7758
X8.35Y-3.825
X8.35Y-3.8644
X8.35Y-3.9136
X8.3533Y-7.3429
X8.3533Y-7.4019
X8.3553Y-8.4059
X8.3572Y-3.0614
X8.3572Y-3.1096
X8.3607Y-3.5201
X8.3651Y-8.1008
X8.367Y-2.6077
X8.3778Y-3.3163
X8.3783Y-3.3672
X8.3856Y-5.125
X8.3965Y-3.0604
X8.3965Y-3.1106
X8.4045Y-8.5437
X8.4064Y-2.6372
X8.4114Y-4.775
X8.4162Y-3.3163
X8.4162Y-3.3655
X8.4242Y-7.2838
X8.4242Y-7.333
X8.4242Y-7.3724
X8.4242Y-7.4216
X8.425Y-5.125
X8.4324Y-3.9443
X8.434Y-8.6126
X8.434Y-8.6519
X8.434Y-8.7012
X8.4403Y-6.834
X8.4606Y-4.775
X8.4742Y-5.125
X8.4984Y-6.937
X8.5Y-4.775
X8.5226Y-8.4059
X8.5226Y-8.4846
X8.5245Y-2.7553
X8.5492Y-4.775
X8.5504Y-6.6144
X8.554Y-2.7848
X8.575Y-3.5508
X8.575Y-3.6
X8.575Y-3.6394
X8.575Y-3.6886
X8.5827Y-7.0669
X8.5836Y-2.8144
X8.5836Y-2.8636
X8.5836Y-3.1392
X8.5836Y-3.1884
X8.5836Y-3.2376
X8.5836Y-3.277
X8.5836Y-3.3262
X8.5836Y-3.3655
X8.5836Y-3.4148
X8.5836Y-3.4541
X8.5836Y-3.5033
X8.6005Y-5.9294
X8.6019Y-6.6144
X8.6089Y-6.0154
X8.6175Y-6.7356
X8.6497Y-5.9294
X8.6582Y-6.0154
X8.675Y-3.1008
X8.675Y-3.15
X8.675Y-3.1894
X8.675Y-3.2386
X8.675Y-3.2758
X8.675Y-3.325
X8.675Y-3.3644
X8.675Y-3.4136
X8.675Y-3.4614
X8.675Y-3.5106
X8.675Y-3.55
X8.675Y-3.5992
X8.6891Y-5.9294
X8.6925Y-4.4099
X8.6975Y-6.0154
X8.6998Y-7.5199
X8.6998Y-7.5691
X8.6998Y-7.6085
X8.6998Y-7.6577
X8.6998Y-7.697
X8.6998Y-7.7463
X8.6998Y-7.7856
X8.6998Y-7.8348
X8.6998Y-7.8841
X8.6998Y-8.1596
X8.6998Y-8.2089
X8.7008Y-6.9864
X8.7114Y-5.15
X8.7205Y-4.3127
X8.7293Y-8.2384
X8.7383Y-5.9294
X8.742Y-4.1763
X8.743Y-4.4088
X8.7467Y-6.0154
X8.7588Y-8.2679
X8.7606Y-5.15
X8.7625Y-2.5391
X8.7625Y-2.6179
X8.7638Y-3.0989
X8.7638Y-3.1481
X8.7638Y-3.1875
X8.7638Y-3.2367
X8.7638Y-3.2802
X8.7638Y-3.3294
X8.7638Y-3.3688
X8.7638Y-3.418
X8.7865Y-5.9294
X8.795Y-6.0154
X8.8Y-5.15
X8.8357Y-5.9294
X8.8442Y-6.0154
X8.8492Y-5.15
X8.8511Y-2.3226
X8.8511Y-2.3718
X8.8511Y-2.4112
X8.8609Y-3.6021
X8.8609Y-3.6513
X8.8609Y-3.6907
X8.8609Y-3.7399
X8.8671Y-7.6577
X8.8671Y-7.7069
X8.8751Y-5.9294
X8.877Y-8.386
X8.878Y-3.9567
X8.8806Y-2.4801
X8.8836Y-6.0154
X8.8868Y-7.9126
X8.8868Y-7.9628
X8.8936Y-4.3649
X8.9051Y-7.6561
X8.9055Y-7.7069
X8.9133Y-4.1681
X8.9133Y-4.2862
X8.9163Y-8.4156
X8.9173Y-2.5391
X8.92Y-2.923
X8.9226Y-7.5032
X8.9243Y-5.9294
X8.9262Y-7.9136
X8.9262Y-7.9618
X8.9298Y-2.6179
X8.9318Y-3.6218
X8.9318Y-3.6809
X8.9328Y-6.0154
X8.936Y-8.327
X8.9557Y-7.3821
X8.9557Y-8.4352
X8.9594Y-2.1159
X8.9594Y-3.8974
X8.9726Y-5.9305
X8.9754Y-8.2679
X8.9761Y-3.6218
X8.9761Y-3.673
X8.981Y-6.0165
X8.9852Y-8.3467
X8.9864Y-5.125
X8.992Y-2.4555
X8.9978Y-8.1459
X9.0049Y-8.4352
X9.0086Y-2.1159
X9.0086Y-3.8974
X9.0094Y-7.7625
X9.0117Y-4.1681
X9.0117Y-4.3649
X9.0184Y-2.9722
X9.0211Y-8.2709
X9.0218Y-5.9305
X9.0302Y-6.0165
X9.0309Y-7.9561
X9.0332Y-2.2575
X9.0344Y-8.3467
X9.0356Y-5.125
X9.0416Y-2.2212
X9.0443Y-8.4352
X9.047Y-8.1459
X9.0479Y-2.1159
X9.0479Y-3.8974
X9.054Y-4.8794
X9.0551Y-3.9567
X9.0611Y-5.9305
X9.0614Y-4.775
X9.0617Y-3.6986
X9.064Y-7.6213
X9.0696Y-6.0165
X9.0702Y-7.2474
X9.0703Y-8.2709
X9.0738Y-8.3467
X9.075Y-5.125
X9.0834Y-2.2586
X9.0864Y-8.1459
X9.0899Y-7.7699
X9.0935Y-7.3295
X9.0935Y-7.5917
X9.0935Y-8.4352
X9.0971Y-2.1159
X9.0971Y-3.8974
X9.1032Y-4.8794
X9.1036Y-2.2296
X9.1096Y-8.2709
X9.1104Y-5.9305
X9.1106Y-4.775
X9.1188Y-6.0165
X9.123Y-8.3467
X9.1242Y-5.125
X9.1293Y-7.9758
X9.1293Y-7.3063
X9.1356Y-8.1459
X9.1426Y-4.8794
X9.1427Y-8.4352
X9.1499Y-3.8944
X9.15Y-4.775
X9.1525Y-7.5494
X9.1586Y-5.9305
X9.1588Y-8.2709
X9.1671Y-6.0165
X9.1687Y-7.2474
X9.1722Y-8.3467
X9.1759Y-2.4899
X9.1821Y-8.14
X9.1864Y-5.125
X9.1889Y-3.7153
X9.1918Y-4.8794
X9.1919Y-8.4352
X9.1956Y-3.8521
X9.1992Y-4.775
X9.2078Y-5.9305
X9.2116Y-7.8348
X9.2163Y-6.0165
X9.2214Y-8.3467
X9.2313Y-8.4352
X9.2356Y-5.125
X9.2411Y-7.1459
X9.2472Y-5.9305
X9.251Y-7.8555
X9.251Y-8.2285
X9.2546Y-3.9761
X9.2556Y-6.0165
X9.2608Y-8.3467
X9.2614Y-4.775
X9.2707Y-7.6774
X9.275Y-5.125
X9.2805Y-8.4352
X9.2864Y-4.875
X9.294Y-2.5391
X9.2964Y-5.9305
X9.3048Y-6.0165
X9.31Y-7.0474
X9.31Y-7.5494
X9.31Y-8.3467
X9.3106Y-4.775
X9.3117Y-3.1733
X9.3199Y-7.4313
X9.3242Y-5.125
X9.3296Y-8.2288
X9.3297Y-8.0711
X9.3334Y-3.9761
X9.3356Y-4.875
X9.3413Y-5.9305
X9.3475Y-3.6673
X9.3498Y-6.0165
X9.35Y-4.775
X9.3727Y-3.5135
X9.3727Y-3.5529
X9.375Y-4.875
X9.3826Y-3.2232
X9.3826Y-3.3068
X9.3826Y-3.8679
X9.3864Y-5.125
X9.3888Y-7.1557
X9.3888Y-7.7167
X9.3888Y-7.7986
X9.3905Y-5.9305
X9.3986Y-7.4707
X9.3986Y-7.51
X9.399Y-6.0165
X9.3992Y-4.775
X9.4238Y-7.3563
X9.4242Y-4.875
X9.4299Y-5.9305
X9.4356Y-5.125
X9.438Y-7.0474
X9.4384Y-6.0165
X9.4416Y-2.9525
X9.4418Y-2.7948
X9.4515Y-3.5923
X9.4597Y-7.8503
X9.4613Y-2.6769
X9.4613Y-3.4742
X9.4613Y-3.9761
X9.475Y-5.125
X9.4774Y-8.4845
X9.4791Y-5.9305
X9.4864Y-4.775
X9.4876Y-6.0165
X9.4909Y-2.5883
X9.5007Y-3.3462
X9.5043Y-4.8717
X9.5105Y-2.6769
X9.5167Y-7.0474
X9.5186Y-5.9294
X9.5204Y-2.795
X9.5204Y-3.1681
X9.5242Y-5.125
X9.527Y-6.0154
X9.5302Y-3.8777
X9.5356Y-4.775
X9.5401Y-2.5883
X9.5499Y-2.6769
X9.5535Y-4.8717
X9.5597Y-3.1887
X9.5678Y-5.9294
X9.575Y-4.775
X9.5758Y-7.1715
X9.5762Y-6.0154
X9.5794Y-2.5883
X9.5864Y-5.125
X9.5893Y-2.8836
X9.5928Y-4.8717
X9.5955Y-8.5337
X9.5991Y-2.6769
X9.6023Y-3.7547
X9.6071Y-5.9294
X9.6125Y-2.7527
X9.6156Y-6.0154
X9.6188Y-3.4742
X9.6214Y-7.1291
X9.6242Y-4.775
X9.6286Y-3.0135
X9.6286Y-2.5883
X9.6356Y-5.125
X9.6357Y-2.8777
X9.6411Y-7.2868
X9.6411Y-7.9954
X9.642Y-3.7173
X9.6421Y-4.8717
X9.6483Y-2.6769
X9.6563Y-5.9294
X9.6608Y-7.8576
X9.6617Y-2.7527
X9.6648Y-6.0154
X9.6677Y-8.794
X9.6742Y-7.1262
X9.6742Y-8.9077
X9.675Y-5.125
X9.6779Y-2.5883
X9.6779Y-3.4318
X9.6779Y-3.6941
X9.681Y-3.2537
X9.6849Y-2.8777
X9.688Y-8.7649
X9.6975Y-2.6769
X9.7011Y-2.7527
X9.7074Y-3.4023
X9.7114Y-4.775
X9.7114Y-4.875
X9.7199Y-6.8931
X9.7234Y-7.1262
X9.7234Y-8.9077
X9.7242Y-5.125
X9.7243Y-2.8777
X9.7271Y-2.5883
X9.7297Y-8.8024
X9.7369Y-2.6769
X9.7382Y-8.7661
X9.7395Y-6.6765
X9.7401Y-3.0657
X9.7503Y-2.7527
X9.7529Y-8.0514
X9.7606Y-4.775
X9.7606Y-4.875
X9.7628Y-7.1262
X9.7628Y-8.9077
X9.7664Y-2.5883
X9.7735Y-2.8777
X9.7789Y-8.5466
X9.7861Y-2.6769
X9.7864Y-5.125
X9.7953Y-7.3506
X9.7953Y-7.4018
X9.796Y-2.7557
X9.8Y-4.775
X9.8Y-4.875
X9.812Y-7.1262
X9.812Y-8.9077
X9.8157Y-2.5883
X9.8157Y-3.6415
X9.8188Y-3.794
X9.8353Y-2.6966
X9.8356Y-5.125
X9.8396Y-7.3427
X9.8396Y-7.4018
X9.8415Y-8.4057
X9.8452Y-3.0618
X9.8452Y-3.11
X9.8487Y-3.5204
X9.8492Y-4.775
X9.8492Y-4.875
X9.8514Y-8.1006
X9.855Y-2.608
X9.8576Y-6.6765
X9.8576Y-6.7553
X9.8576Y-6.834
X9.8658Y-3.3167
X9.8663Y-3.3675
X9.875Y-5.125
X9.8778Y-3.2822
X9.8846Y-3.0608
X9.8846Y-3.111
X9.8907Y-8.5435
X9.8944Y-2.6376
X9.9042Y-3.3167
X9.9042Y-3.3659
X9.9104Y-7.2837
X9.9104Y-7.3329
X9.9104Y-7.3722
X9.9104Y-7.4215
X9.9114Y-4.775
X9.9114Y-4.875
X9.9203Y-8.6124
X9.9203Y-8.6518
X9.9203Y-8.701
X9.9242Y-5.125
X9.9606Y-4.775
X9.9606Y-4.875
X9.9614Y-5.125
X10.0Y-4.775
X10.0Y-4.875
X10.0088Y-8.4057
X10.0088Y-8.4845
X10.0106Y-5.125
X10.0125Y-2.7557
X10.0244Y-6.8406
X10.0244Y-6.6093
X10.042Y-2.7852
X10.0492Y-4.775
X10.0492Y-4.875
X10.05Y-5.125
X10.0716Y-2.8147
X10.0716Y-2.8639
X10.0716Y-3.1395
X10.0716Y-3.1887
X10.0716Y-3.238
X10.0716Y-3.2773
X10.0716Y-3.3265
X10.0716Y-3.3659
X10.0716Y-3.4151
X10.0716Y-3.4545
X10.0716Y-3.5037
X10.0756Y-6.6093
X10.0992Y-5.125
X10.1378Y-7.0043
X10.1423Y-6.164
X10.1508Y-6.25
X10.1548Y-5.9261
X10.1575Y-4.0372
X10.1614Y-5.15
X10.1633Y-6.0121
X10.1914Y-4.4322
X10.1915Y-6.164
X10.1954Y-7.5378
X10.1954Y-7.587
X10.1954Y-7.6263
X10.1954Y-7.6756
X10.1954Y-7.7149
X10.1954Y-7.7641
X10.1954Y-7.8035
X10.1954Y-7.8527
X10.1954Y-7.9019
X10.1954Y-8.1775
X10.1954Y-8.2267
X10.2Y-6.25
X10.204Y-5.9261
X10.2106Y-5.15
X10.2125Y-6.0121
X10.225Y-8.2563
X10.2309Y-6.164
X10.2394Y-6.25
X10.2426Y-4.4322
X10.2426Y-4.2008
X10.2434Y-5.9261
X10.25Y-5.15
X10.2519Y-6.0121
X10.2545Y-8.2858
X10.2581Y-2.557
X10.2581Y-2.6357
X10.2801Y-6.164
X10.2886Y-6.25
X10.2926Y-5.9261
X10.2992Y-5.15
X10.3011Y-6.0121
X10.3207Y-6.1629
X10.3291Y-6.2489
X10.3342Y-5.9272
X10.3427Y-6.0132
X10.3467Y-2.3405
X10.3467Y-2.3897
X10.3467Y-2.4291
X10.3566Y-3.62
X10.3566Y-3.6692
X10.3566Y-3.7086
X10.3566Y-3.7578
X10.3628Y-7.6756
X10.3628Y-7.7248
X10.3699Y-6.1629
X10.3726Y-8.4039
X10.3763Y-2.4979
X10.3783Y-6.2489
X10.3824Y-7.9305
X10.3824Y-7.9807
X10.3835Y-5.9272
X10.3891Y-7.7592
X10.3919Y-6.0132
X10.4007Y-7.6739
X10.4012Y-7.7248
X10.4092Y-6.1629
X10.4093Y-4.2074
X10.4093Y-4.2862
X10.4093Y-4.3649
X10.412Y-8.4334
X10.4156Y-2.9409
X10.4177Y-6.2489
X10.4183Y-7.521
X10.4218Y-7.9315
X10.4218Y-7.9797
X10.4228Y-5.9272
X10.4255Y-2.6357
X10.4274Y-3.6397
X10.4274Y-3.6987
X10.4313Y-6.0132
X10.4317Y-8.3448
X10.4482Y-7.2474
X10.4513Y-7.4
X10.4513Y-8.4531
X10.455Y-2.1338
X10.455Y-3.9153
X10.4585Y-6.1629
X10.4614Y-4.95
X10.4669Y-6.2489
X10.471Y-8.2858
X10.4717Y-3.6397
X10.4717Y-3.6909
X10.472Y-5.9272
X10.4805Y-6.0132
X10.4809Y-8.3645
X10.4881Y-2.4948
X10.4923Y-6.164
X10.4935Y-8.1637
X10.5006Y-8.4531
X10.5008Y-6.25
X10.5042Y-2.1338
X10.5042Y-3.9153
X10.5106Y-4.95
X10.5114Y-5.125
X10.514Y-2.9901
X10.5167Y-8.2887
X10.517Y-5.9294
X10.5254Y-6.0154
X10.5269Y-7.9758
X10.5275Y-4.3649
X10.5288Y-2.2754
X10.5301Y-8.3645
X10.5373Y-2.2391
X10.5399Y-8.4531
X10.5415Y-6.164
X10.5427Y-8.1637
X10.5436Y-2.1338
X10.5436Y-3.9153
X10.5471Y-4.1484
X10.55Y-4.95
X10.55Y-6.25
X10.5596Y-7.6391
X10.5606Y-5.125
X10.5659Y-8.2887
X10.5662Y-5.9294
X10.5694Y-8.3645
X10.5746Y-6.0154
X10.579Y-2.2765
X10.5809Y-6.164
X10.582Y-8.1637
X10.586Y-7.7878
X10.5891Y-7.3474
X10.5891Y-7.6096
X10.5891Y-8.4531
X10.5894Y-6.25
X10.5928Y-2.1338
X10.5928Y-3.9153
X10.5992Y-4.95
X10.5993Y-2.2475
X10.6Y-5.125
X10.6053Y-8.2887
X10.6056Y-5.9294
X10.6062Y-3.1838
X10.614Y-6.0154
X10.6187Y-8.3645
X10.6222Y-5.0419
X10.625Y-7.3242
X10.6259Y-3.046
X10.6259Y-3.7547
X10.6301Y-6.164
X10.6313Y-8.1637
X10.6383Y-8.4531
X10.6384Y-8.0279
X10.6386Y-6.25
X10.6455Y-3.9123
X10.6482Y-7.5673
X10.6492Y-5.125
X10.6545Y-8.2887
X10.6548Y-5.9294
X10.6614Y-4.95
X10.6632Y-6.0154
X10.6647Y-7.2868
X10.6679Y-8.3645
X10.6707Y-6.1629
X10.6714Y-5.0419
X10.6715Y-2.5078
X10.6777Y-8.1578
X10.6791Y-6.2489
X10.6864Y-5.125
X10.6876Y-8.4531
X10.6912Y-3.87
X10.6975Y-5.9283
X10.706Y-6.0143
X10.7072Y-7.8527
X10.7106Y-4.95
X10.7108Y-5.0419
X10.7171Y-8.3645
X10.7199Y-6.1629
X10.7269Y-8.4531
X10.7283Y-6.2489
X10.7356Y-5.125
X10.7368Y-7.1637
X10.7466Y-7.8734
X10.7466Y-8.2464
X10.7467Y-5.9283
X10.75Y-4.95
X10.7503Y-3.994
X10.7552Y-6.0143
X10.7565Y-8.3645
X10.7592Y-6.1629
X10.76Y-5.0419
X10.7663Y-7.6952
X10.7677Y-6.2489
X10.775Y-5.125
X10.7761Y-8.4531
X10.7861Y-5.9283
X10.7896Y-2.557
X10.7946Y-6.0143
X10.7992Y-4.95
X10.8057Y-7.0653
X10.8057Y-7.5673
X10.8057Y-8.3645
X10.8073Y-3.1912
X10.8085Y-6.1629
X10.8155Y-7.4492
X10.8169Y-6.2489
X10.8242Y-5.125
X10.8252Y-8.2466
X10.8254Y-8.0889
X10.8284Y-5.0397
X10.829Y-3.994
X10.8353Y-5.9283
X10.8432Y-3.6852
X10.8438Y-6.0143
X10.8673Y-6.164
X10.8684Y-3.5314
X10.8684Y-3.5708
X10.8758Y-6.25
X10.8776Y-5.0397
X10.8782Y-3.2429
X10.8782Y-3.3247
X10.8782Y-3.8857
X10.8802Y-5.9283
X10.8844Y-7.1736
X10.8844Y-7.7346
X10.8844Y-7.8183
X10.8864Y-4.95
X10.8864Y-5.125
X10.8887Y-6.0143
X10.8943Y-7.4885
X10.8943Y-7.5279
X10.9165Y-6.164
X10.917Y-5.0397
X10.9195Y-7.3742
X10.925Y-6.25
X10.9295Y-5.9283
X10.9336Y-7.0653
X10.9356Y-4.95
X10.9356Y-5.125
X10.9373Y-2.9704
X10.9374Y-2.8127
X10.9379Y-6.0143
X10.9471Y-3.6102
X10.9553Y-7.8682
X10.9559Y-6.164
X10.957Y-2.6948
X10.957Y-3.492
X10.957Y-3.994
X10.9644Y-6.25
X10.9662Y-5.0397
X10.9688Y-5.9283
X10.973Y-8.5023
X10.975Y-4.95
X10.975Y-5.125
X10.9773Y-6.0143
X10.9865Y-2.6062
X10.9963Y-3.3641
X11.0051Y-6.164
X11.0062Y-2.6948
X11.0124Y-7.0653
X11.0136Y-6.25
X11.016Y-2.8129
X11.016Y-3.1859
X11.018Y-5.9283
X11.0229Y-5.0405
X11.0242Y-4.95
X11.0242Y-5.125
X11.0259Y-3.8956
X11.0265Y-6.0143
X11.0357Y-2.6062
X11.0455Y-2.6948
X11.0457Y-6.1629
X11.0541Y-6.2489
X11.0554Y-3.2066
X11.0586Y-5.9283
X11.067Y-6.0143
X11.0714Y-7.1893
X11.0721Y-5.0405
X11.0751Y-2.6062
X11.0781Y-7.3262
X11.0849Y-2.9015
X11.0864Y-4.95
X11.0864Y-5.125
X11.0911Y-8.5515
X11.0948Y-2.6948
X11.0949Y-6.1629
X11.0983Y-3.794
X11.1033Y-6.2489
X11.1078Y-5.9283
X11.1081Y-2.7706
X11.1114Y-5.0405
X11.1144Y-3.492
X11.1162Y-6.0143
X11.1171Y-7.147
X11.1243Y-2.6062
X11.1314Y-2.8956
X11.1342Y-6.1629
X11.1356Y-4.95
X11.1356Y-5.125
X11.1377Y-3.7352
X11.1377Y-3.0657
X11.1427Y-6.2489
X11.144Y-2.6948
X11.1472Y-5.9283
X11.1556Y-6.0143
X11.1574Y-2.7706
X11.1607Y-5.0405
X11.1633Y-8.8119
X11.1698Y-7.1441
X11.1698Y-8.9256
X11.1735Y-2.6062
X11.1735Y-3.4497
X11.1735Y-3.7119
X11.175Y-4.95
X11.175Y-5.125
X11.1771Y-3.2715
X11.1806Y-2.8956
X11.1835Y-6.1629
X11.1836Y-8.7828
X11.1919Y-6.2489
X11.1932Y-2.6948
X11.1964Y-5.9283
X11.1967Y-2.7706
X11.1967Y-3.794
X11.203Y-3.4202
X11.2048Y-6.0143
X11.2053Y-7.3429
X11.2191Y-7.1441
X11.2191Y-8.9256
X11.22Y-2.8956
X11.2227Y-2.6062
X11.2242Y-4.95
X11.2242Y-5.125
X11.2254Y-8.8202
X11.2326Y-2.6948
X11.2336Y-5.0405
X11.2338Y-8.7839
X11.2361Y-3.0854
X11.2459Y-2.7706
X11.2486Y-8.0693
X11.2553Y-6.6765
X11.2553Y-6.8734
X11.2576Y-3.279
X11.2584Y-7.1441
X11.2584Y-8.9256
X11.2621Y-2.6062
X11.2692Y-2.8956
X11.275Y-8.586
X11.2818Y-2.6948
X11.2829Y-5.0405
X11.2864Y-4.95
X11.2864Y-5.125
X11.2909Y-7.3685
X11.2909Y-7.4196
X11.2916Y-2.7735
X11.3076Y-8.9256
X11.3113Y-2.6062
X11.3113Y-3.6594
X11.3222Y-5.0405
X11.331Y-2.7145
X11.3352Y-7.3606
X11.3352Y-7.4196
X11.3356Y-4.95
X11.3356Y-5.125
X11.3372Y-8.4236
X11.3408Y-3.0796
X11.3408Y-3.1279
X11.3444Y-3.5383
X11.347Y-8.1185
X11.3507Y-2.6259
X11.3537Y-6.7553
X11.3537Y-6.8734
X11.3615Y-3.3346
X11.3619Y-3.3854
X11.3714Y-5.0405
X11.3734Y-6.6765
X11.375Y-4.95
X11.375Y-5.125
X11.3802Y-3.0787
X11.3802Y-3.1289
X11.3864Y-8.5614
X11.39Y-2.6554
X11.3999Y-3.3346
X11.3999Y-3.3838
X11.4061Y-7.3015
X11.4061Y-7.3507
X11.4061Y-7.3901
X11.4061Y-7.4393
X11.4159Y-8.6303
X11.4159Y-8.6696
X11.4159Y-8.7189
X11.4173Y-7.0669
X11.4242Y-4.95
X11.4242Y-5.125
X11.4805Y-5.0393
X11.4961Y-6.625
X11.5045Y-8.4236
X11.5045Y-8.5023
X11.5081Y-2.7735
X11.5114Y-4.95
X11.5114Y-5.125
X11.525Y-6.8651
X11.5298Y-5.0393
X11.5377Y-2.8031
X11.5557Y-6.5728
X11.5606Y-4.95
X11.5606Y-5.125
X11.5672Y-2.8326
X11.5672Y-2.8818
X11.5672Y-3.1574
X11.5672Y-3.2066
X11.5672Y-3.2558
X11.5672Y-3.2952
X11.5672Y-3.3444
X11.5672Y-3.3838
X11.5672Y-3.433
X11.5672Y-3.4724
X11.5672Y-3.5216
X11.5691Y-5.0393
X11.6Y-4.95
X11.6Y-5.125
X11.6Y-6.6259
X11.6142Y-4.0551
X11.6183Y-5.0393
X11.6492Y-4.95
X11.6492Y-5.125
X11.6495Y-4.3059
X11.6541Y-5.9239
X11.6626Y-6.0099
X11.6651Y-4.4271
X11.6673Y-6.164
X11.6758Y-6.25
X11.6771Y-4.205
X11.6834Y-7.5381
X11.6834Y-7.5873
X11.6834Y-7.6267
X11.6834Y-7.6759
X11.6834Y-7.7153
X11.6834Y-7.7645
X11.6834Y-7.8039
X11.6834Y-7.8531
X11.6834Y-7.9023
X11.6834Y-8.1779
X11.6834Y-8.2271
X11.7033Y-5.9239
X11.7118Y-6.0099
X11.713Y-8.2566
X11.7165Y-6.164
X11.7165Y-4.4271
X11.725Y-6.25
X11.7425Y-8.2861
X11.7427Y-5.9239
X11.7444Y-2.5568
X11.7444Y-2.6356
X11.7511Y-6.0099
X11.7559Y-6.164
X11.7644Y-6.25
X11.7686Y-4.1045
X11.7919Y-5.9239
X11.8004Y-6.0099
X11.8051Y-6.164
X11.8084Y-7.1234
X11.8136Y-6.25
X11.8267Y-4.2074
X11.8313Y-5.9239
X11.833Y-2.3403
X11.833Y-2.3895
X11.833Y-2.4289
X11.8398Y-6.0099
X11.8428Y-3.6198
X11.8428Y-3.669
X11.8428Y-3.7084
X11.8428Y-3.7576
X11.8457Y-6.1629
X11.8508Y-7.6759
X11.8508Y-7.7251
X11.8541Y-6.2489
X11.8606Y-8.4043
X11.8625Y-2.4978
X11.8704Y-7.9308
X11.8704Y-7.981
X11.8805Y-5.9239
X11.8887Y-7.6743
X11.889Y-6.0099
X11.8892Y-7.7251
X11.8898Y-4.0748
X11.8949Y-6.1629
X11.9Y-8.4338
X11.9019Y-2.9407
X11.9033Y-6.2489
X11.9063Y-7.5214
X11.9098Y-7.9318
X11.9098Y-7.98
X11.9117Y-2.6356
X11.9137Y-3.6395
X11.9137Y-3.6986
X11.9197Y-8.3452
X11.9199Y-5.9239
X11.9284Y-6.0099
X11.9342Y-6.1629
X11.9393Y-7.4003
X11.9393Y-8.4535
X11.9412Y-2.1336
X11.9412Y-3.9151
X11.9427Y-6.2489
X11.958Y-3.6395
X11.958Y-3.6907
X11.959Y-8.2861
X11.9645Y-2.4948
X11.9689Y-8.3649
X11.9691Y-5.9239
X11.9776Y-6.0099
X11.9815Y-8.1641
X11.9835Y-6.1629
X11.9882Y-4.0157
X11.9886Y-8.4535
X11.9904Y-2.1336
X11.9904Y-3.9151
X11.9919Y-6.2489
X12.0003Y-2.9899
X12.0047Y-8.2891
X12.0151Y-2.2752
X12.0163Y-5.9228
X12.0181Y-8.3649
X12.023Y-7.9758
X12.0231Y-7.7882
X12.0235Y-2.2389
X12.0247Y-6.0088
X12.0279Y-8.4535
X12.0298Y-2.1336
X12.0298Y-3.9151
X12.0307Y-8.1641
X12.035Y-6.1606
X12.0434Y-6.2466
X12.0476Y-7.6395
X12.0539Y-8.2891
X12.0575Y-8.3649
X12.0652Y-2.2763
X12.0655Y-5.9228
X12.0701Y-8.1641
X12.0739Y-6.0088
X12.0771Y-7.3478
X12.0771Y-7.61
X12.0771Y-8.4535
X12.079Y-2.1336
X12.079Y-3.9151
X12.0797Y-7.7882
X12.0821Y-7.2671
X12.0821Y-7.9758
X12.0826Y-3.1838
X12.0842Y-6.1606
X12.0855Y-2.2473
X12.0921Y-3.7642
X12.0927Y-6.2466
X12.0933Y-8.2891
X12.1048Y-5.9228
X12.1067Y-8.3649
X12.113Y-7.3245
X12.1133Y-6.0088
X12.1193Y-8.1641
X12.1219Y-3.0263
X12.1236Y-6.1606
X12.1263Y-8.4535
X12.1318Y-3.9122
X12.132Y-6.2466
X12.1362Y-7.5676
X12.1425Y-8.2891
X12.1541Y-5.9228
X12.1559Y-8.3649
X12.1578Y-2.5076
X12.1608Y-7.2671
X12.1625Y-6.0088
X12.1657Y-8.1582
X12.1728Y-6.1606
X12.1756Y-8.4535
X12.1775Y-3.8698
X12.1812Y-6.2466
X12.1946Y-5.9239
X12.1952Y-7.8531
X12.2031Y-6.0099
X12.2051Y-8.3649
X12.2133Y-6.1595
X12.2149Y-8.4535
X12.2218Y-6.2455
X12.2244Y-4.5866
X12.2244Y-4.8819
X12.2248Y-7.1641
X12.2346Y-7.8737
X12.2346Y-8.2468
X12.2365Y-3.9938
X12.2438Y-5.9239
X12.2445Y-8.3649
X12.2523Y-6.0099
X12.2543Y-7.6956
X12.2625Y-6.1595
X12.2641Y-8.4535
X12.271Y-6.2455
X12.2759Y-2.5568
X12.2832Y-5.9239
X12.2916Y-6.0099
X12.2936Y-3.191
X12.2937Y-7.0657
X12.2937Y-7.5676
X12.2937Y-8.3649
X12.3019Y-6.1595
X12.3035Y-7.4495
X12.3104Y-6.2455
X12.3132Y-8.247
X12.3134Y-8.0893
X12.3152Y-3.9938
X12.3294Y-3.685
X12.3324Y-5.9239
X12.3409Y-6.0099
X12.3425Y-5.2953
X12.3511Y-6.1595
X12.3546Y-3.5312
X12.3546Y-3.5706
X12.3596Y-6.2455
X12.3645Y-3.2232
X12.3645Y-3.3246
X12.3645Y-3.8856
X12.3724Y-7.1739
X12.3724Y-7.735
X12.3724Y-7.838
X12.3819Y-5.1772
X12.3823Y-7.4889
X12.3823Y-7.5283
X12.4075Y-7.3745
X12.4092Y-4.9105
X12.4216Y-7.0657
X12.4235Y-2.9702
X12.4236Y-2.8125
X12.4334Y-3.61
X12.4432Y-2.6946
X12.4432Y-3.4919
X12.4432Y-3.9938
X12.4433Y-7.8685
X12.461Y-8.5027
X12.4727Y-2.6061
X12.4803Y-4.9803
X12.4826Y-3.3639
X12.4924Y-2.6946
X12.5004Y-7.0657
X12.5023Y-2.8127
X12.5023Y-3.1858
X12.5121Y-3.8954
X12.5219Y-2.6061
X12.5318Y-2.6946
X12.5394Y-4.9606
X12.5416Y-3.2064
X12.5545Y-7.3262
X12.5591Y-4.252
X12.5594Y-7.1897
X12.5613Y-2.6061
X12.5712Y-2.9013
X12.5791Y-8.5519
X12.581Y-2.6946
X12.5944Y-2.7704
X12.5944Y-3.8137
X12.5984Y-5.5315
X12.6007Y-3.4919
X12.6051Y-7.1474
X12.6105Y-2.6061
X12.6141Y-3.0263
X12.6176Y-2.8954
X12.6239Y-3.735
X12.6302Y-2.6946
X12.6318Y-4.802
X12.6332Y-7.897
X12.6332Y-8.0348
X12.6436Y-2.7704
X12.6513Y-8.8122
X12.6571Y-3.2714
X12.6578Y-7.1444
X12.6578Y-8.9259
X12.6597Y-2.6061
X12.6597Y-3.4496
X12.6597Y-3.7118
X12.6668Y-2.8954
X12.6716Y-8.7832
X12.6726Y-7.3262
X12.6772Y-5.5315
X12.6794Y-2.6946
X12.683Y-2.7704
X12.6893Y-3.42
X12.6923Y-6.6962
X12.6923Y-6.834
X12.7062Y-2.8954
X12.7071Y-7.1444
X12.7071Y-8.9259
X12.709Y-2.6061
X12.7125Y-3.1051
X12.7134Y-8.8206
X12.7188Y-2.6946
X12.7218Y-8.7843
X12.7322Y-2.7704
X12.7366Y-8.0696
X12.7464Y-7.1444
X12.7464Y-8.9259
X12.7483Y-2.6061
X12.7554Y-2.8954
X12.768Y-2.6946
X12.771Y-8.5663
X12.7778Y-2.7734
X12.7789Y-7.3688
X12.7789Y-7.42
X12.7956Y-7.1444
X12.7956Y-8.9259
X12.7975Y-2.6061
X12.7975Y-3.6592
X12.8104Y-6.6962
X12.8104Y-6.7553
X12.8104Y-6.834
X12.8172Y-2.7143
X12.8232Y-7.361
X12.8232Y-7.42
X12.8252Y-8.4239
X12.8271Y-3.0795
X12.8271Y-3.1277
X12.8306Y-3.5381
X12.835Y-8.1188
X12.8369Y-2.6257
X12.8477Y-3.3344
X12.8481Y-3.3852
X12.8664Y-3.0785
X12.8664Y-3.1287
X12.8744Y-8.5617
X12.8763Y-2.6553
X12.8861Y-3.3344
X12.8861Y-3.3836
X12.8937Y-6.8307
X12.8941Y-7.3019
X12.8941Y-7.3511
X12.8941Y-7.3905
X12.8941Y-7.4397
X12.9039Y-8.6306
X12.9039Y-8.67
X12.9039Y-8.7192
X12.9528Y-7.1063
X12.9925Y-8.4239
X12.9925Y-8.5027
X12.9944Y-2.7734
X13.0106Y-6.8474
X13.0169Y-6.6104
X13.0239Y-2.8029
X13.0534Y-2.8324
X13.0534Y-2.8816
X13.0534Y-2.921
X13.0534Y-2.9702
X13.0534Y-3.0194
X13.0534Y-3.0686
X13.0534Y-3.108
X13.0534Y-3.1572
X13.0534Y-3.2064
X13.0534Y-3.2557
X13.0534Y-3.295
X13.0534Y-3.3442
X13.0534Y-3.3836
X13.0534Y-3.4328
X13.0534Y-3.4722
X13.0534Y-3.5214
X13.0682Y-6.6103
X13.2185Y-6.8209
X13.5747Y-3.9462
X13.575Y-5.7874
X13.6284Y-6.0255
X13.6811Y-6.2387
X13.7247Y-3.2462
X13.7566Y-5.6693
X13.7747Y-3.3712
X13.775Y-6.1
X13.8Y-6.9
X13.8071Y-5.6686
X13.825Y-6.05
X13.9469Y-6.0185
X13.9567Y-6.6339
X14.1247Y-2.8462
X14.1747Y-2.9462
X14.2747Y-5.0712
T2
X7.25Y-4.675
X7.25Y-4.775
X7.25Y-5.075
X7.45Y-4.675
X7.45Y-4.775
X7.45Y-5.075
X8.303Y-5.9718
X8.303Y-6.2718
X8.303Y-6.3718
X8.503Y-5.9718
X8.503Y-6.2718
X8.503Y-6.3718
X8.675Y-4.675
X8.675Y-4.775
X8.675Y-5.075
X8.875Y-4.675
X8.875Y-4.775
X8.875Y-5.075
X9.875Y-5.975
X9.875Y-6.275
X9.875Y-6.375
X10.075Y-5.975
X10.075Y-6.275
X10.075Y-6.375
X10.197Y-4.6782
X10.197Y-4.7782
X10.197Y-5.0782
X10.397Y-4.6782
X10.397Y-4.7782
X10.397Y-5.0782
X11.375Y-5.975
X11.375Y-6.275
X11.375Y-6.375
X11.575Y-5.975
X11.575Y-6.275
X11.575Y-6.375
X11.775Y-4.675
X11.775Y-4.775
X11.775Y-5.075
X11.975Y-4.675
X11.975Y-4.775
X11.975Y-5.075
X12.8Y-5.975
X12.8Y-6.275
X12.8Y-6.375
X13.0Y-5.975
X13.0Y-6.275
X13.0Y-6.375
T3
X6.325Y-2.3781
X6.325Y-2.575
X6.75Y-2.3781
X6.75Y-2.575
T4
X2.4748Y-7.875
X2.4748Y-8.875
X2.5748Y-7.875
X2.5748Y-8.875
X2.6748Y-7.875
X2.6748Y-8.875
X2.7748Y-7.875
X2.7748Y-8.875
X2.8748Y-7.875
X2.8748Y-8.875
X2.9748Y-7.875
X2.9748Y-8.875
X3.0748Y-7.875
X3.0748Y-8.875
X3.1748Y-7.875
X3.1748Y-8.875
X3.2748Y-7.875
X3.2748Y-8.875
X3.3748Y-7.875
X3.3748Y-8.875
X3.4748Y-7.875
X3.4748Y-8.875
X3.5748Y-7.875
X3.5748Y-8.875
X3.6748Y-7.875
X3.6748Y-8.875
X3.7748Y-7.875
X3.7748Y-8.875
X3.8748Y-7.875
X3.8748Y-8.875
X3.9748Y-7.875
X3.9748Y-8.875
X4.0748Y-7.875
X4.0748Y-8.875
X4.1748Y-7.875
X4.1748Y-8.875
X4.2748Y-7.875
X4.2748Y-8.875
T5
X2.0771Y-2.8164
X2.0771Y-3.6353
X2.0771Y-3.9575
X2.0771Y-4.7764
X3.8487Y-3.3203
X3.8487Y-3.6353
X3.8487Y-4.4615
X3.8487Y-4.7764
T6
X2.1605Y-2.0208
X2.1605Y-2.2208
X2.1605Y-2.4208
T6
G00X6.3676Y-1.9971
M15
G01X6.3674Y-1.9971
M16
G05
G00X6.5251Y-1.875
M15
G01X6.5249Y-1.875
M16
G05
G00X6.6826Y-2.0286
M15
G01X6.6824Y-2.0286
M16
G05
G00X13.8176Y-1.9971
M15
G01X13.8174Y-1.9971
M16
G05
G00X13.9751Y-1.875
M15
G01X13.9749Y-1.875
M16
G05
G00X14.1326Y-2.0286
M15
G01X14.1324Y-2.0286
M16
G05
M30
